<svg width="28" height="20" viewBox="0 0 28 20" fill="none" xmlns="http://www.w3.org/2000/svg">
<path d="M0 0H27.9987V20H0V0Z" fill="#ECEFF1"/>
<path d="M0 0H27.9987L28 2.22222H0.00127267L0 0ZM0.00127267 4.44444H28V6.66667H0.00127267V4.44444ZM0.00127267 8.88889H28V11.1111H0.00127267V8.88889ZM0.00127267 13.3333H28V15.5556H0.00127267V13.3333ZM0.00127267 17.7778H28L27.9987 20H0L0.00127267 17.7778Z" fill="#F44336"/>
<path d="M0 0H13.3643V11.1111H0.00127267L0 0Z" fill="#3F51B5"/>
<path d="M1.43303 1.48148L1.72765 2.21333L2.38753 2.33037L1.91028 2.90074L2.02354 3.7037L1.43303 3.32444L0.842507 3.7037L0.955775 2.90074L0.478524 2.33037L1.1384 2.21333L1.43303 1.48148ZM3.97836 1.48148L4.27299 2.21333L4.93287 2.33037L4.45562 2.90074L4.56888 3.7037L3.97836 3.32444L3.38785 3.7037L3.50111 2.90074L3.02386 2.33037L3.68374 2.21333L3.97836 1.48148ZM6.5237 1.48148L6.81833 2.21333L7.47821 2.33037L7.00095 2.90074L7.11422 3.7037L6.5237 3.32444L5.93318 3.7037L6.04645 2.90074L5.5692 2.33037L6.22908 2.21333L6.5237 1.48148ZM9.06904 1.48148L9.36366 2.21333L10.0235 2.33037L9.54629 2.90074L9.65956 3.7037L9.06904 3.32444L8.47852 3.7037L8.59179 2.90074L8.11454 2.33037L8.77442 2.21333L9.06904 1.48148ZM11.4553 1.48148L11.7499 2.21333L12.4098 2.33037L11.9325 2.90074L12.0458 3.7037L11.4553 3.32444L10.8648 3.7037L10.978 2.90074L10.5008 2.33037L11.1607 2.21333L11.4553 1.48148ZM1.43303 7.40741L1.72765 8.13926L2.38753 8.2563L1.91028 8.82667L2.02354 9.62963L1.43303 9.25037L0.842507 9.62963L0.955775 8.82667L0.478524 8.2563L1.1384 8.13926L1.43303 7.40741ZM3.97836 7.40741L4.27299 8.13926L4.93287 8.2563L4.45562 8.82667L4.56888 9.62963L3.97836 9.25037L3.38785 9.62963L3.50111 8.82667L3.02386 8.2563L3.68374 8.13926L3.97836 7.40741ZM6.5237 7.40741L6.81833 8.13926L7.47821 8.2563L7.00095 8.82667L7.11422 9.62963L6.5237 9.25037L5.93318 9.62963L6.04645 8.82667L5.5692 8.2563L6.22908 8.13926L6.5237 7.40741ZM9.06904 7.40741L9.36366 8.13926L10.0235 8.2563L9.54629 8.82667L9.65956 9.62963L9.06904 9.25037L8.47852 9.62963L8.59179 8.82667L8.11454 8.2563L8.77442 8.13926L9.06904 7.40741ZM11.4553 7.40741L11.7499 8.13926L12.4098 8.2563L11.9325 8.82667L12.0458 9.62963L11.4553 9.25037L10.8648 9.62963L10.978 8.82667L10.5008 8.2563L11.1607 8.13926L11.4553 7.40741ZM2.06936 4.44445L2.36398 5.1763L3.02386 5.29333L2.54661 5.8637L2.65988 6.66667L2.06936 6.28741L1.47884 6.66667L1.59211 5.8637L1.11486 5.29333L1.77474 5.1763L2.06936 4.44445ZM4.6147 4.44445L4.90932 5.1763L5.5692 5.29333L5.09195 5.8637L5.20522 6.66667L4.6147 6.28741L4.02418 6.66667L4.13745 5.8637L3.6602 5.29333L4.32008 5.1763L4.6147 4.44445ZM7.16004 4.44445L7.45466 5.1763L8.11454 5.29333L7.63729 5.8637L7.75056 6.66667L7.16004 6.28741L6.56952 6.66667L6.68279 5.8637L6.20554 5.29333L6.86541 5.1763L7.16004 4.44445ZM9.70538 4.44445L10 5.1763L10.6599 5.29333L10.1826 5.8637L10.2959 6.66667L9.70538 6.28741L9.11486 6.66667L9.22813 5.8637L8.75088 5.29333L9.41075 5.1763L9.70538 4.44445ZM12.0916 4.44445L12.3863 5.1763L13.0461 5.29333L12.5689 5.8637L12.6821 6.66667L12.0916 6.28741L11.5011 6.66667L11.6144 5.8637L11.1371 5.29333L11.797 5.1763L12.0916 4.44445Z" fill="white"/>
</svg>
