<svg width="19" height="25" viewBox="0 0 19 25" fill="none" xmlns="http://www.w3.org/2000/svg">
<path d="M6.85974 14.4288C6.85974 15.4313 7.70349 16.25 8.73474 16.25C9.76662 16.25 10.6097 15.4306 10.6097 14.4288V1.82C10.6097 0.818125 9.76662 0 8.73474 0C7.70349 0 6.85974 0.81875 6.85974 1.82V14.4288ZM14.3591 15.6788C14.3591 16.6812 15.2035 17.5 16.2341 17.5C17.2666 17.5 18.1091 16.6806 18.1091 15.6788V12.445C18.1091 11.4431 17.2666 10.625 16.2341 10.625C15.2035 10.625 14.3591 11.4438 14.3591 12.445V15.6788Z" fill="#FFCC80"/>
<path d="M10.6091 15.6788C10.6091 16.6813 11.4535 17.5 12.4841 17.5C13.5166 17.5 14.3591 16.6806 14.3591 15.6788L14.3691 11.82C14.3691 10.8188 13.5254 10 12.4941 10C11.4629 10 10.6191 10.8188 10.6191 11.82L10.6091 15.6788Z" fill="#FFCC80"/>
<path d="M10.6091 12.5L10.6191 11.875H6.85975L4.38162 4.02313C4.18725 3.00688 3.206 2.33375 2.18787 2.53375C1.171 2.72813 0.504122 3.71 0.698497 4.7275L3.09725 13.6719L0.828497 15.9406C0.252872 16.3244 -0.0340031 16.97 0.00474685 17.615C-0.0327531 18.1681 0.150371 18.7625 0.609747 19.3756L2.29225 21.78C4.021 23.5106 5.2235 24.8256 7.53787 24.9719C7.6735 24.9875 7.81225 25 7.95725 25H12.2566C15.4447 25 18.1191 22.4644 18.1191 19.2788C18.1191 19.2788 18.1191 16.26 18.1191 12.5H10.6091Z" fill="#FFCC80"/>
<path d="M14.9942 15.5625C15.0017 16.295 15.5654 16.8812 16.2573 16.875C16.9473 16.8662 17.501 16.2656 17.4935 15.5356C17.4854 14.8037 14.9867 14.8306 14.9942 15.5625ZM11.2442 15.5625C11.2517 16.295 11.8154 16.8812 12.5073 16.875C13.1973 16.8662 13.751 16.2656 13.7435 15.5356C13.7354 14.8037 11.2367 14.8306 11.2442 15.5625Z" fill="#FFEBEE"/>
<path d="M18.1092 15.6788C18.1092 16.6813 17.2667 17.5 16.2342 17.5C15.2035 17.5 14.3592 16.6806 14.3592 15.6788C14.3592 16.31 14.0248 16.8663 13.5191 17.1944C14.0504 18.1594 15.0598 18.75 16.2342 18.75C16.9423 18.75 17.5879 18.5088 18.1129 18.1175C18.1154 16.9019 18.1092 15.6788 18.1092 15.6788Z" fill="#F2A86B"/>
<path d="M14.3592 15.6788C14.3592 16.6813 13.5166 17.5 12.4841 17.5C11.4535 17.5 10.6091 16.6806 10.6091 15.6788L9.87165 15.6469C9.77665 15.9044 9.63102 16.1375 9.44165 16.3288C9.74415 17.805 10.9885 18.75 12.4841 18.75C13.1923 18.75 13.8379 18.5087 14.3629 18.1175C14.3654 16.9019 14.3592 15.6788 14.3592 15.6788Z" fill="#F2A86B"/>
<path d="M3.11915 13.59L3.0979 13.6706L3.32915 13.44C3.63728 13.235 3.99915 13.125 4.36915 13.125H8.11915C9.15478 13.125 9.99415 13.9644 9.99415 15C9.99415 16.0356 9.15478 16.875 8.11915 16.875H5.56165L6.86915 18.125H8.11915C9.84228 18.125 11.2442 16.7231 11.2442 15C11.2442 13.2769 9.84228 12.5 8.11915 12.5C8.11915 12.5 8.72603 12.5 6.85978 12.5C4.36915 12.5 3.61103 13.29 3.11915 13.59Z" fill="#F2A86B"/>
<path d="M6.76602 16.875H5.56165L5.09665 17.2569C5.09665 17.2569 9.65227 19.9931 9.97102 24.375L9.97853 25H11.2442C11.2442 20.5312 8.31415 17.9344 6.76602 16.875Z" fill="#F2A86B"/>
</svg>
