<svg width="381" height="354" viewBox="0 0 381 354" fill="none" xmlns="http://www.w3.org/2000/svg">
<path d="M142.628 353.215C221.271 353.215 285.024 348.01 285.024 341.59C285.024 335.169 221.271 329.965 142.628 329.965C63.9847 329.965 0.231689 335.169 0.231689 341.59C0.231689 348.01 63.9847 353.215 142.628 353.215Z" fill="#E6E7E8"/>
<path d="M380.2 232.454H278.948V314.95H380.2V232.454Z" fill="white"/>
<path d="M380.2 315.765H278.948C278.736 315.765 278.533 315.681 278.383 315.531C278.233 315.381 278.148 315.178 278.148 314.966V232.454C278.148 232.242 278.233 232.039 278.383 231.889C278.533 231.739 278.736 231.654 278.948 231.654H380.2C380.411 231.659 380.612 231.744 380.761 231.893C380.91 232.042 380.996 232.243 381 232.454V314.966C380.996 315.176 380.91 315.377 380.761 315.526C380.612 315.675 380.411 315.761 380.2 315.765ZM279.747 314.166H379.401V233.254H279.763L279.747 314.166Z" fill="#D1D3D4"/>
<path d="M380.2 243.855H278.948C278.736 243.855 278.533 243.771 278.383 243.621C278.233 243.471 278.148 243.268 278.148 243.056C278.148 242.844 278.233 242.64 278.383 242.49C278.533 242.34 278.736 242.256 278.948 242.256H380.2C380.412 242.256 380.616 242.34 380.766 242.49C380.916 242.64 381 242.844 381 243.056C380.996 243.267 380.91 243.468 380.761 243.617C380.612 243.766 380.411 243.851 380.2 243.855Z" fill="#D1D3D4"/>
<path d="M101.212 78.3206C99.0286 78.4674 96.8497 77.9708 94.9453 76.8922C93.0408 75.8136 91.4944 74.2003 90.4972 72.252C89.5001 70.3036 89.0961 68.1057 89.335 65.9301C89.574 63.7545 90.4456 61.6967 91.8419 60.0113C85.7335 57.197 82.5034 49.9692 82.9511 43.2692C83.3988 36.5691 86.9328 30.4767 91.3462 25.3277C94.976 21.1222 99.5333 17.3324 104.986 16.293C106.018 16.1902 107.025 15.9088 107.96 15.4615C108.697 14.9435 109.336 14.2993 109.847 13.5586C113.829 8.47361 118.738 3.80436 124.878 1.75756C131.019 -0.289234 138.534 0.878076 142.644 5.88313C144.698 4.09977 147.246 2.98217 149.949 2.67823C152.652 2.37429 155.384 2.89833 157.783 4.18102C160.182 5.4637 162.135 7.44456 163.384 9.86148C164.632 12.2784 165.117 15.0174 164.775 17.7162C169.101 18.3549 173.158 20.2065 176.475 23.0565C179.792 25.9064 182.233 29.638 183.516 33.8187C185.803 42.2298 181.917 52.112 174.162 56.0936C173.266 56.5573 172.195 57.165 172.227 58.1564C172.315 58.7548 172.582 59.3123 172.994 59.7555C175.489 63.3214 174.241 68.4863 171.395 71.7164C168.549 74.9465 164.295 76.6575 160.202 78.2886C161.112 79.2016 161.719 80.3733 161.939 81.6439C162.16 82.9145 161.983 84.222 161.433 85.3884C160.247 87.7233 158.401 89.6583 156.124 90.9531C147.233 96.6938 136.232 94.9028 126.27 95.1107C117.075 95.3026 107.944 89.434 101.852 82.7819C100.669 81.5187 99.7252 79.216 101.212 78.3206Z" fill="#231F20"/>
<path d="M137.287 96.0222C135.688 96.0222 134.089 96.0222 132.618 96.0222C130.539 96.0222 128.364 95.9262 126.318 96.0222C117.97 96.1661 108.728 91.4808 101.276 83.4376C100.752 82.9117 100.34 82.2847 100.065 81.5948C99.7901 80.9049 99.6582 80.1663 99.6773 79.4239C99.6682 79.3656 99.6682 79.3063 99.6773 79.248C97.5244 79.1446 95.4398 78.4598 93.6449 77.2665C91.8501 76.0731 90.4121 74.4158 89.4838 72.4706C88.5555 70.5254 88.1716 68.3651 88.3728 66.2191C88.574 64.0732 89.3528 62.0219 90.6266 60.2832C85.1098 57.245 81.6718 50.385 82.1515 43.2212C82.5513 37.0968 85.4456 30.9084 90.7385 24.8C95.3438 19.4911 99.9491 16.4529 104.842 15.5095L105.386 15.4135C106.155 15.3833 106.904 15.1593 107.564 14.7624C108.224 14.3655 108.773 13.8084 109.16 13.1429C114.181 6.74663 119.218 2.81295 124.623 1.00601C131.291 -1.21669 138.598 0.3344 142.74 4.7638C144.92 3.08098 147.54 2.06586 150.285 1.84125C153.029 1.61663 155.78 2.19216 158.204 3.49818C160.629 4.80421 162.622 6.78476 163.945 9.20024C165.267 11.6157 165.861 14.3626 165.654 17.1085C169.975 17.8893 173.998 19.841 177.286 22.7509C180.574 25.6607 183 29.4172 184.3 33.6108C186.73 42.5496 182.429 52.7996 174.529 56.8132C173.73 57.213 173.01 57.6607 173.026 58.1404C173.105 58.4722 173.265 58.7796 173.49 59.0359L173.634 59.2438C176.48 63.2734 174.865 68.9181 171.907 72.1802C168.981 75.0523 165.452 77.2371 161.577 78.5764C162.277 79.6242 162.7 80.8323 162.806 82.088C162.912 83.3436 162.699 84.6057 162.185 85.7562C160.961 88.2214 159.029 90.2649 156.636 91.6247C150.703 95.4625 143.987 96.0222 137.287 96.0222ZM128.093 94.2952C129.612 94.2952 131.147 94.2952 132.65 94.2952C140.645 94.4551 148.88 94.631 155.708 90.2176C157.86 89.0189 159.603 87.2032 160.713 85.0046C161.21 83.986 161.376 82.8381 161.19 81.7205C161.003 80.6028 160.474 79.571 159.674 78.7683C159.569 78.6794 159.489 78.565 159.442 78.4361C159.394 78.3073 159.38 78.1684 159.402 78.0327C159.425 77.8951 159.482 77.7655 159.569 77.6563C159.655 77.5471 159.769 77.462 159.898 77.4091C163.64 75.906 167.893 74.211 170.723 71.0129C173.266 68.2145 174.689 63.4173 172.323 60.0593L172.179 59.8834C171.743 59.3808 171.474 58.7547 171.411 58.0925C171.411 56.4934 172.93 55.7258 173.778 55.2941C181.037 51.5523 184.971 42.1818 182.732 33.9307C181.467 29.9206 179.099 26.3478 175.897 23.6216C172.696 20.8954 168.791 19.1259 164.631 18.5157C164.424 18.484 164.238 18.3725 164.112 18.2051C163.987 18.0377 163.932 17.8277 163.959 17.6202C164.274 15.0871 163.815 12.5181 162.644 10.2501C161.472 7.98217 159.643 6.1211 157.395 4.91093C155.148 3.70075 152.587 3.19796 150.049 3.46846C147.511 3.73897 145.114 4.77016 143.172 6.42682C143.091 6.4975 142.997 6.55098 142.896 6.58399C142.794 6.61699 142.687 6.6288 142.58 6.61871C142.474 6.61082 142.372 6.58118 142.278 6.53164C142.185 6.48211 142.102 6.41375 142.036 6.33087C138.438 1.94945 131.483 0.35039 125.15 2.47714C120.049 4.17214 115.252 7.94593 110.487 14.0064C109.922 14.8267 109.212 15.5366 108.392 16.1011C107.548 16.5505 106.625 16.8329 105.674 16.9326L105.162 17.0286C100.637 17.9081 96.3192 20.7704 91.9538 25.7914C86.9008 31.628 84.1504 37.5126 83.7666 43.2692C83.3029 50.1771 86.7568 56.7333 92.1936 59.2598C92.3042 59.3112 92.4018 59.3867 92.4792 59.4808C92.5567 59.5749 92.6121 59.6851 92.6414 59.8034C92.667 59.9239 92.6644 60.0486 92.6339 60.1678C92.6034 60.2871 92.5458 60.3977 92.4655 60.491C91.1469 62.0493 90.3187 63.9628 90.0852 65.9907C89.8517 68.0186 90.2233 70.0703 91.1532 71.8875C92.0832 73.7047 93.5299 75.2061 95.3113 76.2029C97.0927 77.1996 99.1292 77.6471 101.164 77.4891C101.347 77.4705 101.529 77.5163 101.681 77.6185C101.833 77.7208 101.945 77.873 101.996 78.0487C102.05 78.2203 102.045 78.4053 101.981 78.5736C101.917 78.7419 101.799 78.8838 101.644 78.9762C101.545 79.0309 101.462 79.1092 101.4 79.204C101.339 79.2988 101.302 79.4073 101.292 79.5199C101.32 80.5404 101.744 81.5101 102.476 82.2223C109.543 89.9297 118.466 94.4391 126.286 94.2792L128.093 94.2952Z" fill="#231F20"/>
<path d="M215.417 312.503C219.079 312.503 246.375 315.461 259.152 321.81C271.928 328.158 274.694 328.653 272.104 337.224C269.513 345.795 247.015 347.906 229.889 344.676C218.858 342.408 208.219 338.54 198.307 333.195L215.417 312.503Z" fill="white"/>
<path d="M246.039 346.963C240.575 346.941 235.125 346.406 229.761 345.364C218.655 343.079 207.941 339.189 197.956 333.818C197.863 333.763 197.782 333.688 197.719 333.6C197.656 333.512 197.611 333.413 197.588 333.307C197.569 333.202 197.574 333.095 197.602 332.993C197.629 332.891 197.679 332.796 197.748 332.715L214.858 312.023C214.92 311.938 215.002 311.87 215.097 311.822C215.191 311.775 215.296 311.751 215.401 311.751H215.561C220.023 311.751 246.679 314.79 259.471 321.138L262.35 322.561C272.6 327.582 275.366 328.957 272.808 337.432C271.193 342.805 260.671 346.963 246.039 346.963ZM199.443 332.971C209.072 338.054 219.37 341.753 230.033 343.956C247.223 347.155 269.034 344.884 271.416 337.017C273.607 329.725 272.024 328.941 261.71 323.888L258.832 322.465C246.631 316.405 220.534 313.318 215.753 313.223L199.443 332.971Z" fill="#231F20"/>
<path d="M219.079 312.423C221.493 313.014 223.595 314.497 224.962 316.573C226.329 318.649 226.861 321.165 226.451 323.616C225.251 332.715 206.015 333.099 204.911 333.211C203.808 333.323 219.079 312.423 219.079 312.423Z" fill="white"/>
<path d="M204.911 333.723C204.769 333.718 204.629 333.678 204.506 333.605C204.383 333.532 204.281 333.43 204.208 333.307C203.968 332.827 203.584 332.091 218.487 311.927C218.573 311.81 218.692 311.721 218.829 311.672C218.966 311.624 219.115 311.618 219.255 311.655C219.335 311.655 228.45 313.942 227.25 323.584C226.035 332.843 208.509 333.659 205.007 333.723H204.911ZM219.303 313.207C214.618 319.603 207.646 329.197 205.903 332.235C210.284 332.028 224.692 330.796 225.667 323.393C226.043 321.226 225.608 318.997 224.446 317.131C223.285 315.264 221.477 313.89 219.367 313.271L219.303 313.207Z" fill="#231F20"/>
<path d="M76.5069 333.259C75.9472 333.547 70.7183 340.343 47.9157 343.061C25.1131 345.779 16.654 350.689 11.569 338.712C6.48401 326.735 9.96997 318.995 21.1634 315.573C32.3568 312.151 63.3626 309.321 69.439 315.045C75.5155 320.77 76.5069 333.259 76.5069 333.259Z" fill="white"/>
<path d="M22.8264 347.123C17.1818 347.123 13.5519 345.236 10.8975 338.999C8.24301 332.763 7.84325 327.406 9.77812 323.265C11.5691 319.427 15.3428 316.597 20.9715 314.886C31.4934 311.687 63.4586 308.393 69.9508 314.518C76.1711 320.37 77.1625 332.683 77.2105 333.195C77.2179 333.33 77.1892 333.465 77.1274 333.586C77.0656 333.707 76.9729 333.809 76.8587 333.882L76.6348 334.074C70.0627 340.055 57.4461 342.661 47.9797 343.781C43.0706 344.372 38.849 345.06 35.1872 345.667C31.1085 346.457 26.977 346.943 22.8264 347.123ZM52.3451 312.487C41.3915 312.487 28.1193 314.23 21.4353 316.277C16.1903 317.876 12.7044 320.434 11.1053 323.888C9.34636 327.63 9.73013 332.523 12.2407 338.424C15.9985 347.299 21.5472 346.419 34.9153 344.228C38.6571 343.621 42.9106 342.933 47.8357 342.341C57.0783 341.238 69.4071 338.712 75.6914 332.987C75.4675 330.892 74.0923 320.546 68.9274 315.621C66.6247 313.35 60.0526 312.487 52.3451 312.487Z" fill="#231F20"/>
<path d="M83.7826 328.366C83.7826 328.366 73.4367 337.001 66.5448 335.977C59.6528 334.954 50.1224 331.18 53.9602 323.744C57.7979 316.309 82.5034 311.831 82.5034 311.831L83.7826 328.366Z" fill="white"/>
<path d="M67.728 336.793C67.2945 336.793 66.8615 336.761 66.4328 336.697C61.2678 335.929 55.0315 333.723 53.0326 329.805C52.5392 328.801 52.3055 327.69 52.353 326.572C52.4004 325.455 52.7276 324.367 53.3045 323.409C57.2701 315.701 81.352 311.304 82.3754 311.112C82.4761 311.095 82.5793 311.098 82.6784 311.123C82.7775 311.148 82.8704 311.193 82.951 311.256C83.0321 311.32 83.0993 311.4 83.1488 311.49C83.1982 311.581 83.2289 311.681 83.2389 311.783L84.5181 328.302C84.527 328.418 84.5085 328.536 84.4641 328.644C84.4196 328.752 84.3505 328.848 84.2623 328.925C83.8465 329.261 74.7479 336.793 67.728 336.793ZM81.8477 312.711C77.6102 313.542 57.8618 317.748 54.6637 324.08C54.1919 324.832 53.9181 325.691 53.8678 326.578C53.8175 327.464 53.9922 328.349 54.3758 329.149C56.1348 332.555 61.8914 334.538 66.7046 335.258C72.5732 336.137 81.384 329.389 83.079 328.046L81.8477 312.711Z" fill="#231F20"/>
<path d="M208.062 255.832C208.062 255.832 197.156 298.367 157.355 306.491C117.555 314.614 96.9589 312.471 82.8551 285.607C68.7514 258.743 78.058 242.304 78.058 242.304L203.664 239.81L208.062 255.832Z" fill="#231F20"/>
<path d="M124.527 311.464C105.338 311.464 92.0178 304.78 82.1356 285.975C67.9999 259.03 77.0026 242.592 77.3384 241.904C77.4082 241.784 77.5083 241.683 77.629 241.613C77.7496 241.543 77.8865 241.506 78.026 241.505L203.632 239.01C203.813 239.001 203.992 239.055 204.138 239.163C204.284 239.271 204.388 239.426 204.432 239.602L208.781 255.592C208.813 255.729 208.813 255.871 208.781 256.008C208.669 256.44 197.3 299.183 157.451 307.258C144.867 309.865 133.977 311.464 124.527 311.464ZM78.5857 243.088C77.3384 245.726 71.0381 261.365 83.5587 285.239C97.8703 312.423 118.738 313.574 157.116 305.707C194.582 298.063 206.271 258.966 207.15 255.832L203.009 240.625L78.5857 243.088Z" fill="#231F20"/>
<path d="M68.6874 256.216C68.6874 256.216 48.1075 189.695 50.8099 148.008C53.5123 106.32 69.0072 104.833 90.1468 102.482C99.5333 101.427 149.536 94.0234 168.261 116.058C186.986 138.093 219.943 241.297 219.943 241.297L68.6874 256.216Z" fill="#4977FF"/>
<path d="M142.964 102.594L139.766 124.853C139.766 124.853 132.762 136.35 118.738 130.53C104.714 124.709 104.442 113.98 104.442 113.98L111.094 72.8518C111.094 72.8518 125.886 59.5796 132.106 34.2185C132.106 34.2185 144.499 55.8378 162.488 60.6989C162.488 60.6989 161.289 78.6564 158.075 89.7858C154.877 100.548 143.188 102.466 142.964 102.594Z" fill="white"/>
<path d="M126.254 132.96C123.534 132.928 120.848 132.351 118.354 131.265C103.963 125.317 103.579 114.459 103.563 113.996L110.263 72.7239C110.296 72.541 110.385 72.373 110.519 72.2442C110.663 72.1162 125.198 58.844 131.307 34.0266C131.351 33.8742 131.437 33.7375 131.556 33.6327C131.675 33.5279 131.822 33.4593 131.978 33.435C132.135 33.4129 132.294 33.4375 132.436 33.5058C132.578 33.5741 132.697 33.683 132.778 33.8187C132.906 34.0426 145.234 55.2142 162.648 59.9154C162.828 59.9633 162.986 60.0727 163.094 60.2245C163.202 60.3763 163.254 60.5611 163.24 60.7469C163.24 60.9228 161.993 78.9282 158.795 90.0097C156.156 99.1404 147.601 102.275 143.699 103.234L140.501 124.965C140.486 125.071 140.454 125.174 140.405 125.269C138.83 127.585 136.723 129.492 134.262 130.83C131.8 132.168 129.055 132.898 126.254 132.96ZM111.862 73.2356L105.242 114.108C105.242 114.363 105.722 124.246 119.058 129.794C131.515 134.959 138.247 125.765 139.014 124.565L142.212 102.482C142.227 102.361 142.271 102.245 142.341 102.145C142.411 102.045 142.504 101.963 142.612 101.907C142.759 101.821 142.923 101.767 143.092 101.747C146.53 100.931 154.813 98.101 157.275 89.562C160.09 79.8237 161.369 64.6006 161.609 61.2906C146.578 56.8772 135.672 41.3823 132.41 36.2493C126.334 58.7641 113.589 71.4766 111.862 73.2356Z" fill="#231F20"/>
<path d="M119.713 73.4754C119.534 71.3951 118.681 69.4301 117.283 67.8787C115.924 66.485 114.333 65.3379 112.582 64.4887C111.673 63.927 110.652 63.5721 109.591 63.4493C108.841 63.4567 108.098 63.6031 107.401 63.8811C105.698 64.4241 104.246 65.5586 103.307 67.0792C102.689 68.3692 102.398 69.7916 102.46 71.2208C102.396 72.7674 102.536 74.3157 102.875 75.8261C103.251 77.3341 103.924 78.752 104.855 79.9966C105.785 81.2411 106.955 82.2873 108.296 83.0737C109.636 83.8601 111.12 84.371 112.661 84.5762C114.201 84.7815 115.767 84.6771 117.267 84.2691" fill="white"/>
<path d="M114.229 85.4044C111.446 85.407 108.742 84.4801 106.546 82.7709C104.35 81.0617 102.788 78.6681 102.108 75.97C101.737 74.3994 101.586 72.7849 101.66 71.1728C101.604 69.6154 101.927 68.0676 102.604 66.6634C103.622 64.9917 105.204 63.7386 107.065 63.1295C107.861 62.8203 108.706 62.6578 109.559 62.6498C110.744 62.7746 111.886 63.1625 112.901 63.7851C114.73 64.6776 116.39 65.8785 117.811 67.3351C119.327 69.0198 120.254 71.153 120.449 73.4115C120.462 73.6227 120.393 73.8309 120.256 73.9921C120.119 74.1532 119.924 74.2546 119.713 74.275C119.503 74.2845 119.297 74.2138 119.137 74.0773C118.977 73.9408 118.874 73.7485 118.85 73.5394C118.693 71.6368 117.924 69.8361 116.659 68.4064C115.359 67.0864 113.839 66.0041 112.166 65.2083C111.368 64.697 110.467 64.3693 109.527 64.2489C108.88 64.2543 108.239 64.3846 107.641 64.6326C106.13 65.099 104.83 66.0772 103.963 67.399C103.42 68.5801 103.167 69.8742 103.227 71.1728C103.15 72.6502 103.285 74.1309 103.627 75.5702C103.979 76.97 104.605 78.2859 105.47 79.4414C106.335 80.5969 107.421 81.5689 108.665 82.3009C109.909 83.033 111.286 83.5105 112.716 83.7056C114.146 83.9007 115.601 83.8096 116.995 83.4376C117.199 83.3837 117.415 83.4122 117.598 83.5169C117.78 83.6217 117.914 83.7943 117.97 83.9973C117.997 84.0991 118.003 84.2052 117.988 84.3094C117.974 84.4136 117.939 84.5139 117.885 84.6045C117.832 84.6951 117.761 84.7743 117.677 84.8375C117.593 84.9006 117.497 84.9466 117.395 84.9727C116.363 85.2576 115.299 85.4028 114.229 85.4044Z" fill="#231F20"/>
<path d="M139.814 67.1272C139.814 67.1272 146.098 79.5199 144.035 81.2948C141.972 83.0698 137.015 81.1189 137.015 81.1189" fill="white"/>
<path d="M141.461 82.8459C139.818 82.7952 138.196 82.4654 136.663 81.8705C136.566 81.8317 136.477 81.7741 136.401 81.7008C136.326 81.6276 136.266 81.5402 136.224 81.4436C136.182 81.3471 136.16 81.2433 136.159 81.1382C136.157 81.0331 136.177 80.9287 136.216 80.8311C136.297 80.6365 136.451 80.4811 136.645 80.3976C136.839 80.3141 137.058 80.309 137.255 80.3834C138.422 80.8311 142.052 81.8705 143.443 80.6872C144.291 79.9836 142.18 73.6833 139.046 67.4789C138.997 67.3859 138.967 67.2839 138.958 67.179C138.949 67.0741 138.962 66.9685 138.994 66.8686C139.027 66.7686 139.08 66.6762 139.149 66.597C139.219 66.5178 139.303 66.4534 139.398 66.4076C139.587 66.3169 139.805 66.3029 140.004 66.3685C140.204 66.434 140.37 66.574 140.469 66.7594C142.436 70.6611 146.786 79.9356 144.499 81.9025C143.623 82.5534 142.551 82.8862 141.461 82.8459Z" fill="#231F20"/>
<path d="M132.007 64.3261C132.128 62.8473 131.369 61.5787 130.313 61.4926C129.257 61.4065 128.303 62.5355 128.182 64.0143C128.062 65.493 128.82 66.7616 129.876 66.8477C130.933 66.9338 131.887 65.8048 132.007 64.3261Z" fill="#231F20"/>
<path d="M151.818 67.0633C151.928 65.5838 151.161 64.3205 150.104 64.2418C149.047 64.1631 148.101 65.2987 147.991 66.7783C147.881 68.2578 148.648 69.5211 149.705 69.5998C150.762 69.6785 151.708 68.5429 151.818 67.0633Z" fill="#231F20"/>
<path d="M138.183 92.7601C135.738 92.8031 133.318 92.2545 131.131 91.161C127.309 89.1622 124.862 85.3405 123.855 79.8077C123.837 79.7037 123.839 79.5971 123.862 79.4941C123.885 79.391 123.929 79.2936 123.99 79.2073C124.05 79.1211 124.128 79.0478 124.217 78.9917C124.307 78.9355 124.407 78.8977 124.511 78.8803C124.718 78.8471 124.93 78.895 125.103 79.0142C125.275 79.1333 125.396 79.3144 125.438 79.5199C126.334 84.5409 128.508 87.9789 131.834 89.7379C138.55 93.2558 148.001 89.0023 148.097 88.9543C148.29 88.8678 148.509 88.8613 148.707 88.9362C148.905 89.0112 149.065 89.1614 149.152 89.3541C149.197 89.4493 149.223 89.5527 149.227 89.6579C149.231 89.7632 149.214 89.8683 149.177 89.9668C149.139 90.0653 149.083 90.1553 149.01 90.2314C148.937 90.3074 148.849 90.368 148.752 90.4095C145.413 91.8644 141.824 92.6625 138.183 92.7601Z" fill="#231F20"/>
<path d="M142.964 102.594C142.964 102.594 128.572 103.778 121.153 97.9251C121.153 97.9251 127.469 117.913 140.741 117.849L142.964 102.594Z" fill="#231F20"/>
<path d="M140.645 118.649C126.989 118.649 120.625 98.9965 120.353 98.165C120.306 98.001 120.312 97.8264 120.369 97.6658C120.426 97.5051 120.533 97.3665 120.673 97.2695C120.808 97.1644 120.974 97.1074 121.145 97.1074C121.316 97.1074 121.482 97.1644 121.616 97.2695C128.764 102.85 142.724 101.779 142.868 101.763C142.987 101.754 143.106 101.773 143.217 101.817C143.328 101.86 143.428 101.929 143.51 102.016C143.591 102.103 143.652 102.208 143.687 102.322C143.723 102.436 143.732 102.556 143.715 102.674L141.493 117.945C141.458 118.144 141.354 118.325 141.199 118.454C141.043 118.583 140.847 118.652 140.645 118.649ZM122.736 99.9399C124.767 104.945 130.523 116.538 140.022 117.034L141.988 103.458C138.918 103.586 129.452 103.682 122.768 99.9399H122.736Z" fill="#231F20"/>
<path d="M74.3001 106.192C44.7655 102.514 17.0377 227.897 33.1563 239.81C58.2935 258.407 135.016 233.014 135.016 233.014L127.341 199.929C127.341 199.929 71.9655 202.568 70.9581 191.198C69.9506 179.829 101.9 126.532 97.4225 118.761C92.9451 110.989 74.3001 106.192 74.3001 106.192Z" fill="#4977FF"/>
<path d="M177.424 200.857C177.247 200.862 177.076 200.8 176.942 200.685C176.809 200.569 176.724 200.408 176.704 200.233C172.898 173.497 164.551 128.723 161.849 126.101C161.717 125.963 161.644 125.78 161.645 125.59C161.645 125.399 161.72 125.217 161.852 125.08C161.985 124.943 162.165 124.863 162.355 124.857C162.545 124.85 162.731 124.918 162.872 125.045C166.342 128.419 175.265 179.781 178.143 200.025C178.171 200.218 178.12 200.414 178.003 200.57C177.886 200.726 177.712 200.829 177.52 200.857H177.424Z" fill="#231F20"/>
<path d="M149.168 264.115L98.1902 249.836L191.815 232.23L242.489 253.466L149.168 264.115Z" fill="white"/>
<path d="M149.168 264.963C149.1 264.978 149.029 264.978 148.96 264.963L97.9823 250.571C97.7702 250.571 97.5668 250.487 97.4169 250.337C97.267 250.187 97.1827 249.984 97.1827 249.772C97.1827 249.56 97.267 249.356 97.4169 249.206C97.5668 249.057 97.7702 248.972 97.9823 248.972L191.607 231.383C191.753 231.335 191.91 231.335 192.055 231.383L242.729 252.618C242.891 252.687 243.026 252.807 243.113 252.96C243.2 253.114 243.233 253.291 243.209 253.466C243.185 253.642 243.103 253.806 242.975 253.93C242.848 254.055 242.682 254.133 242.505 254.153L149.264 264.963H149.168ZM101.708 250.044L149.232 263.364L239.355 253.082L191.719 233.126L101.708 250.044Z" fill="#231F20"/>
<path d="M119.09 211.362C130.283 212.594 140.661 213.393 151.071 217.759C157.02 220.257 162.637 223.48 167.797 227.353C170.426 229.219 172.883 231.316 175.137 233.621C176.928 235.572 176.352 237.475 173.346 236.532C169.85 235.436 166.54 233.819 163.528 231.734C170.73 237.611 177.114 244.424 182.509 251.995C183.116 252.858 183.708 254.089 182.988 254.857C182.269 255.624 180.67 254.857 179.79 254.057L163.975 239.058C168.162 242.67 171.723 246.949 174.513 251.723C174.913 252.41 175.297 253.322 174.881 253.945C174.177 255.113 172.387 254.233 171.427 253.258C166.69 248.475 162.383 243.284 158.555 237.747L167.094 250.539C167.013 250.775 166.886 250.993 166.721 251.18C166.555 251.366 166.354 251.518 166.13 251.627C165.905 251.735 165.661 251.798 165.412 251.812C165.163 251.826 164.914 251.79 164.679 251.707C163.739 251.318 162.925 250.676 162.328 249.852L151.982 237.971L158.091 246.382C159.05 247.693 160.01 249.58 158.906 250.811C157.803 252.042 155.309 250.811 153.901 249.564C148.241 244.399 142.026 239.878 135.368 236.084C132.954 234.661 130.891 232.726 128.22 231.91C124.383 230.727 119.586 230.887 115.588 230.439" fill="white"/>
<path d="M182.221 255.944C181.152 255.824 180.158 255.338 179.406 254.569L174.289 249.772C174.625 250.3 174.961 250.843 175.265 251.371C175.588 251.787 175.794 252.284 175.858 252.807C175.923 253.331 175.845 253.862 175.633 254.345C175.489 254.592 175.29 254.801 175.051 254.956C174.813 255.112 174.541 255.209 174.257 255.241C173.653 255.233 173.056 255.1 172.505 254.849C171.955 254.599 171.462 254.236 171.059 253.785C170.004 252.73 168.98 251.659 167.973 250.587C167.98 250.646 167.98 250.705 167.973 250.763C167.912 251.059 167.79 251.339 167.614 251.584C167.437 251.83 167.211 252.035 166.95 252.186C166.604 252.393 166.221 252.526 165.822 252.579C165.423 252.631 165.018 252.601 164.631 252.49C163.555 252.068 162.623 251.347 161.945 250.411L160.058 248.253C160.293 248.774 160.376 249.351 160.297 249.917C160.218 250.483 159.979 251.015 159.61 251.451C159.38 251.709 159.099 251.917 158.786 252.062C158.472 252.208 158.133 252.288 157.787 252.298C156.117 252.116 154.571 251.332 153.438 250.092C147.833 244.954 141.664 240.47 135.048 236.724C134.233 236.244 133.449 235.7 132.682 235.124C131.285 234.035 129.725 233.172 128.061 232.566C125.272 231.86 122.413 231.474 119.538 231.415C118.162 231.335 116.819 231.255 115.556 231.127C115.363 231.103 115.188 231.004 115.068 230.851C114.948 230.698 114.894 230.504 114.916 230.311C114.926 230.217 114.955 230.125 115.001 230.041C115.046 229.958 115.108 229.884 115.182 229.824C115.257 229.765 115.342 229.721 115.434 229.695C115.525 229.668 115.621 229.661 115.716 229.672C116.963 229.8 118.274 229.88 119.617 229.959C122.612 230.017 125.59 230.419 128.492 231.159C130.295 231.818 131.988 232.745 133.513 233.909C134.249 234.437 135 234.949 135.784 235.412C142.49 239.223 148.749 243.771 154.445 248.972C155.31 249.852 156.428 250.439 157.643 250.651C157.792 250.646 157.938 250.611 158.072 250.547C158.207 250.484 158.328 250.395 158.427 250.284C159.29 249.34 158.107 247.501 157.563 246.75L151.455 238.355C151.398 238.281 151.356 238.197 151.331 238.108C151.307 238.018 151.3 237.924 151.312 237.832C151.324 237.74 151.354 237.651 151.4 237.571C151.447 237.49 151.509 237.42 151.583 237.363C151.717 237.231 151.898 237.157 152.086 237.157C152.275 237.157 152.456 237.231 152.59 237.363L162.952 249.244C163.458 249.952 164.149 250.505 164.951 250.843C165.14 250.896 165.338 250.911 165.533 250.886C165.728 250.861 165.916 250.798 166.086 250.699C166.188 250.646 166.276 250.569 166.342 250.475L158.011 237.955C157.903 237.796 157.862 237.6 157.898 237.411C157.934 237.222 158.044 237.056 158.203 236.947C158.362 236.839 158.557 236.799 158.746 236.835C158.935 236.871 159.102 236.98 159.21 237.139C163.021 242.638 167.301 247.795 172.003 252.554C172.523 253.126 173.233 253.489 174.002 253.578C174.065 253.576 174.126 253.557 174.18 253.523C174.233 253.49 174.277 253.442 174.305 253.386C174.481 253.114 174.305 252.602 173.938 251.899C172.013 248.604 169.71 245.545 167.078 242.784L163.512 239.394C163.396 239.257 163.335 239.082 163.339 238.903C163.343 238.724 163.413 238.552 163.535 238.421C163.656 238.289 163.822 238.207 164 238.189C164.179 238.17 164.357 238.218 164.503 238.323C165.766 239.41 166.966 240.545 168.117 241.745L180.334 253.338C180.809 253.877 181.461 254.229 182.173 254.329C182.237 254.332 182.302 254.318 182.36 254.291C182.419 254.263 182.47 254.221 182.509 254.169C182.876 253.785 182.509 252.922 181.981 252.218C176.626 244.704 170.291 237.939 163.144 232.102C163.013 231.978 162.932 231.81 162.918 231.63C162.903 231.45 162.954 231.271 163.063 231.126C163.172 230.982 163.33 230.883 163.507 230.848C163.684 230.812 163.868 230.843 164.023 230.935C166.963 232.981 170.199 234.567 173.618 235.636C174.737 235.988 175.329 235.844 175.441 235.636C175.553 235.428 175.441 234.725 174.657 233.893C172.438 231.617 170.013 229.55 167.413 227.721C162.304 223.888 156.74 220.703 150.847 218.238C141.461 214.321 132.074 213.313 122.064 212.242L118.946 211.89C118.851 211.88 118.759 211.852 118.676 211.806C118.592 211.76 118.519 211.698 118.459 211.624C118.4 211.55 118.355 211.464 118.329 211.373C118.303 211.281 118.295 211.185 118.306 211.091C118.316 210.996 118.345 210.904 118.391 210.82C118.436 210.737 118.498 210.663 118.572 210.604C118.647 210.544 118.732 210.5 118.824 210.474C118.915 210.448 119.011 210.44 119.106 210.451L122.304 210.787C132.362 211.874 141.844 212.898 151.423 216.895C157.427 219.382 163.099 222.605 168.309 226.49C170.982 228.391 173.476 230.532 175.761 232.886C176.912 234.133 177.264 235.492 176.688 236.404C176.352 236.915 175.457 237.683 173.202 236.979C171.901 236.582 170.625 236.106 169.38 235.556C174.493 240.34 179.116 245.622 183.18 251.323C184.284 252.922 184.427 254.217 183.612 255.113C183.437 255.305 183.225 255.46 182.989 255.567C182.752 255.674 182.496 255.732 182.237 255.736L182.221 255.944Z" fill="#231F20"/>
<path d="M242.489 253.466L265.82 191.022L170.532 192.909L149.168 264.115L242.489 253.466Z" fill="white"/>
<path d="M149.168 264.963C149.052 264.964 148.936 264.939 148.831 264.889C148.726 264.839 148.633 264.766 148.56 264.675C148.477 264.574 148.418 264.455 148.391 264.327C148.363 264.199 148.366 264.066 148.401 263.94L169.764 192.733C169.816 192.572 169.916 192.431 170.05 192.328C170.184 192.225 170.347 192.166 170.516 192.158L265.804 190.271C265.934 190.269 266.063 190.298 266.18 190.357C266.297 190.415 266.398 190.501 266.475 190.607C266.545 190.714 266.59 190.836 266.606 190.964C266.623 191.091 266.611 191.22 266.571 191.342L243.241 253.706C243.189 253.847 243.098 253.971 242.98 254.064C242.861 254.157 242.719 254.216 242.569 254.233L149.264 264.963H149.168ZM171.139 193.741L150.351 263.236L241.978 252.778L264.716 191.886L171.139 193.741Z" fill="#231F20"/>
<path d="M237.404 254.041C237.404 254.041 263.261 275.037 254.179 294.29C245.096 313.542 79.8809 335.545 79.8809 335.545L72.4453 310.376C72.4453 310.376 202.049 244.175 237.404 254.041Z" fill="#231F20"/>
<path d="M79.8809 336.345C79.7085 336.342 79.5414 336.285 79.4035 336.182C79.2656 336.079 79.164 335.934 79.1133 335.769L71.6777 310.6C71.6209 310.423 71.63 310.232 71.7036 310.061C71.7771 309.891 71.9099 309.753 72.0775 309.673C72.3973 309.497 104.906 292.946 141.333 277.787C190.344 257.399 222.725 249.148 237.564 253.274C237.676 253.304 237.78 253.359 237.868 253.434C242.38 257.267 246.388 261.657 249.797 266.498C256.929 276.764 258.656 286.486 254.786 294.641C245.544 314.054 86.7409 335.434 79.9928 336.329L79.8809 336.345ZM73.3887 310.76L80.4565 334.618C92.0018 333.019 244.76 311.943 253.347 293.922C261.79 276.14 238.955 256.36 236.973 254.745C203.36 245.774 83.079 305.963 73.4846 310.792L73.3887 310.76Z" fill="#231F20"/>
<path d="M63.8903 244.399C63.8903 244.399 192.183 296.273 223.988 309.96L205.503 338.52C205.503 338.52 87.0447 336.201 53.0807 306.443C19.1167 276.684 21.3713 227.145 63.8903 244.399Z" fill="#231F20"/>
<path d="M205.503 339.351C205.215 339.351 175.457 338.728 141.94 334.474C96.8469 328.733 66.7846 319.523 52.569 307.066C34.7874 291.491 22.3307 264.147 32.117 248.269C35.3151 242.992 43.8541 235.396 64.2261 243.647C65.5054 244.175 192.887 295.697 224.34 309.209C224.447 309.252 224.543 309.32 224.621 309.405C224.698 309.491 224.755 309.594 224.788 309.705C224.82 309.817 224.828 309.935 224.811 310.051C224.795 310.166 224.754 310.277 224.692 310.376L206.207 338.983C206.132 339.101 206.027 339.196 205.904 339.261C205.78 339.325 205.642 339.356 205.503 339.351ZM48.1396 241.617C41.5674 241.617 36.5304 244.143 33.4602 249.1C25.9126 261.365 32.1969 287.11 53.6084 305.867C85.9254 334.186 197.092 337.544 205.071 337.736L222.821 310.312C189.976 296.241 64.8817 245.646 63.6025 245.135C58.7186 242.99 53.4706 241.796 48.1396 241.617Z" fill="#231F20"/>
<path d="M242.985 228.536C243.123 229.274 243.442 229.967 243.913 230.551L246.407 234.277C246.316 233.892 246.141 233.532 245.896 233.222C245.65 232.911 245.34 232.659 244.986 232.482C244.632 232.305 244.244 232.208 243.848 232.198C243.453 232.187 243.06 232.264 242.697 232.422C241.989 232.805 241.4 233.377 240.997 234.074C240.593 234.771 240.39 235.566 240.411 236.372C240.482 237.98 240.862 239.56 241.53 241.025C243.305 245.63 247.319 252.362 253.123 248.876C257.057 246.51 258.144 238.163 258.704 234.005C259.807 225.818 257.297 215.296 246.775 216.895C247.078 220.927 248.582 224.775 251.092 227.945C249.381 226.282 242.457 223.707 242.985 228.536Z" fill="white"/>
<path d="M249.909 250.571C249.266 250.576 248.628 250.468 248.022 250.252C244.232 248.956 241.866 244.079 240.794 241.281C240.097 239.728 239.701 238.057 239.627 236.356C239.601 235.41 239.844 234.477 240.328 233.664C240.812 232.852 241.517 232.194 242.361 231.766C242.753 231.588 243.178 231.495 243.609 231.495L243.257 230.967C242.711 230.28 242.348 229.466 242.202 228.6C242.074 227.965 242.162 227.306 242.452 226.727C242.742 226.147 243.216 225.681 243.801 225.402C245.44 224.896 247.211 225.027 248.758 225.77C247.221 223.085 246.304 220.092 246.071 217.007C246.061 216.823 246.119 216.641 246.234 216.496C246.349 216.352 246.513 216.255 246.695 216.224C248.295 215.873 249.957 215.917 251.536 216.352C253.115 216.787 254.566 217.599 255.762 218.718C259.519 222.428 260.143 229.112 259.455 234.149C258.832 238.754 257.712 247.021 253.523 249.548C252.439 250.223 251.186 250.578 249.909 250.571ZM243.705 232.982C243.447 232.978 243.191 233.027 242.953 233.126C242.371 233.451 241.89 233.931 241.563 234.512C241.236 235.093 241.075 235.753 241.098 236.42C241.161 237.935 241.52 239.423 242.154 240.801C242.953 242.848 245.16 247.757 248.55 248.908C249.249 249.132 249.991 249.192 250.717 249.084C251.443 248.976 252.135 248.702 252.739 248.285C256.337 246.126 257.425 238.003 257.952 234.101C258.608 229.304 258.08 223.068 254.754 219.71C253.81 218.821 252.675 218.161 251.435 217.782C250.196 217.402 248.886 217.312 247.606 217.519C248.018 221.158 249.442 224.61 251.716 227.481C251.833 227.625 251.89 227.808 251.875 227.993C251.86 228.177 251.774 228.349 251.636 228.472C251.5 228.601 251.319 228.672 251.132 228.672C250.945 228.672 250.765 228.601 250.629 228.472C249.557 227.417 246.023 225.914 244.44 226.681C244.088 226.841 243.641 227.209 243.753 228.456C243.892 229.073 244.165 229.651 244.552 230.151L245.895 232.134C246.247 232.362 246.545 232.666 246.766 233.022C246.987 233.379 247.127 233.78 247.175 234.197C247.192 234.36 247.154 234.524 247.067 234.663C246.98 234.802 246.849 234.908 246.695 234.965C246.542 235.019 246.375 235.021 246.221 234.968C246.067 234.916 245.935 234.813 245.847 234.677L244.856 233.206C244.498 233.032 244.101 232.955 243.705 232.982Z" fill="#231F20"/>
<path d="M206.958 304.044C206.858 304.059 206.755 304.059 206.654 304.044C203.856 302.957 137.719 277.356 122.816 268.225C122.63 268.109 122.498 267.925 122.447 267.713C122.396 267.501 122.431 267.277 122.544 267.09C122.6 266.996 122.674 266.915 122.761 266.85C122.849 266.786 122.948 266.74 123.054 266.714C123.16 266.689 123.27 266.685 123.377 266.703C123.484 266.721 123.587 266.76 123.679 266.818C138.455 275.868 206.559 302.237 207.246 302.493C207.452 302.572 207.617 302.729 207.707 302.929C207.797 303.13 207.804 303.358 207.726 303.564C207.66 303.711 207.551 303.835 207.415 303.92C207.278 304.006 207.119 304.049 206.958 304.044Z" fill="white"/>
<path d="M129.82 199.625C144.4 199.625 156.22 188.435 156.22 174.632C156.22 160.829 144.4 149.639 129.82 149.639C115.239 149.639 103.419 160.829 103.419 174.632C103.419 188.435 115.239 199.625 129.82 199.625Z" fill="#231F20"/>
<path d="M129.82 200.409C114.82 200.409 102.635 188.848 102.635 174.632C102.635 160.416 114.836 148.839 129.82 148.839C144.803 148.839 157.004 160.416 157.004 174.632C157.004 188.848 144.819 200.409 129.82 200.409ZM129.82 150.438C115.7 150.438 104.235 161.296 104.235 174.632C104.235 187.968 115.716 198.81 129.82 198.81C143.923 198.81 155.404 187.968 155.404 174.632C155.404 161.296 143.939 150.438 129.82 150.438Z" fill="#231F20"/>
<path d="M115.892 182.755L109.495 179.013V174.072L115.892 170.331C118.024 169.105 120.156 167.857 122.288 166.589V172.569C121.153 173.273 120.017 173.96 118.882 174.616C117.747 175.272 116.627 175.943 115.476 176.663L118.882 178.55L122.288 180.453V186.497L115.892 182.755Z" fill="white"/>
<path d="M124.095 188.08L131.627 159.425L135.56 161.2L127.997 189.807L124.095 188.08Z" fill="white"/>
<path d="M143.843 170.331L150.24 174.072V179.013L143.843 182.755L137.447 186.497V180.453L140.853 178.55L144.259 176.663C143.124 175.943 141.988 175.256 140.853 174.616C139.718 173.976 138.598 173.273 137.447 172.569V166.589L143.843 170.331Z" fill="white"/>
<path d="M75.0837 244.175C74.8717 244.188 74.6632 244.116 74.5043 243.975C74.3454 243.834 74.2489 243.636 74.2362 243.424C74.2235 243.212 74.2955 243.003 74.4365 242.844C74.5774 242.685 74.7757 242.589 74.9878 242.576L113.365 237.923L119.458 207.205L70.2865 203.047C70.169 203.039 70.0548 203.005 69.9524 202.947C69.8499 202.889 69.7619 202.808 69.6949 202.712C69.6231 202.617 69.5742 202.507 69.552 202.391C69.5298 202.274 69.5349 202.154 69.567 202.04L89.7791 126.788C89.8342 126.576 89.9713 126.395 90.1602 126.284C90.3492 126.173 90.5744 126.141 90.7865 126.196C90.9985 126.252 91.18 126.389 91.291 126.578C91.4019 126.767 91.4333 126.992 91.3781 127.204L71.4059 201.544L120.449 205.606C120.561 205.618 120.67 205.653 120.769 205.707C120.868 205.762 120.955 205.837 121.025 205.926C121.092 206.016 121.139 206.12 121.164 206.23C121.189 206.34 121.19 206.454 121.169 206.565L114.772 238.722C114.738 238.887 114.653 239.037 114.53 239.151C114.407 239.266 114.251 239.339 114.085 239.362L75.0837 244.079V244.175Z" fill="#231F20"/>
<path d="M286.416 27.0227H206.686V35.2739H286.416V27.0227Z" fill="#E6E7E8"/>
<path d="M375.419 27.0227H295.69V35.2739H375.419V27.0227Z" fill="#E6E7E8"/>
<path d="M286.416 41.1584H239.611V49.4096H286.416V41.1584Z" fill="#4977FF"/>
<path d="M366.512 41.1584H295.69V49.4096H366.512V41.1584Z" fill="#E6E7E8"/>
<path d="M286.415 55.3101H227.426V63.5613H286.415V55.3101Z" fill="#E6E7E8"/>
<path d="M328.951 55.3101H295.69V63.5613H328.951V55.3101Z" fill="#E6E7E8"/>
<path d="M286.432 69.4458H252.02V77.697H286.432V69.4458Z" fill="#E6E7E8"/>
<path d="M360.836 69.4458H295.69V77.697H360.836V69.4458Z" fill="#4977FF"/>
<path d="M286.415 83.5975H275.462V91.8486H286.415V83.5975Z" fill="#4977FF"/>
<path d="M339.456 83.5975H295.69V91.8486H339.456V83.5975Z" fill="#E6E7E8"/>
<path d="M285.04 141.739H211.771V151.19H285.04V141.739Z" fill="#4977FF"/>
<path d="M341.807 141.739H296.809V151.19H341.807V141.739Z" fill="#E6E7E8"/>
<path d="M285.024 157.922H225.539V167.372H285.024V157.922Z" fill="#E6E7E8"/>
<path d="M362.323 157.922H296.809V167.372H362.323V157.922Z" fill="#E6E7E8"/>
<path d="M285.024 174.12H255.282V183.571H285.024V174.12Z" fill="#E6E7E8"/>
<path d="M374.716 174.12H296.809V183.571H374.716V174.12Z" fill="#E6E7E8"/>
<path d="M285.024 190.319H273.879V199.769H285.024V190.319Z" fill="#E6E7E8"/>
<path d="M379.609 190.319H296.809V199.769H379.609V190.319Z" fill="#4977FF"/>
<path d="M352.425 206.501H296.809V215.952H352.425V206.501Z" fill="#E6E7E8"/>
<path d="M325.001 121.239L318.988 118.841V115.643L325.001 113.244L331.013 110.845V114.651C329.926 115.115 328.855 115.547 327.815 115.962C326.776 116.378 325.672 116.81 324.617 117.274L327.815 118.489L331.013 119.704V123.574L325.001 121.239Z" fill="#E6E7E8"/>
<path d="M332.788 124.645L339.92 106.304L343.662 107.423L336.482 125.845L332.788 124.645Z" fill="#E6E7E8"/>
<path d="M351.433 113.292C353.432 114.092 355.447 114.891 357.446 115.691V118.889L351.433 121.287L345.421 123.686V119.768L348.619 118.553L351.817 117.338C350.73 116.874 349.658 116.442 348.619 116.026C347.58 115.611 346.476 115.179 345.421 114.715V110.893L351.433 113.292Z" fill="#E6E7E8"/>
<path d="M208.781 7.3543C208.779 6.98362 208.861 6.61727 209.021 6.28293C209.161 5.94232 209.374 5.63661 209.645 5.38745C209.911 5.14136 210.22 4.94624 210.556 4.81179C210.916 4.66396 211.302 4.58791 211.691 4.58792C212.06 4.5913 212.424 4.66738 212.763 4.81179C213.093 4.95007 213.396 5.14488 213.658 5.38745C213.914 5.64604 214.12 5.94961 214.266 6.28293C214.414 6.62076 214.49 6.98555 214.49 7.3543C214.49 7.7282 214.414 8.09819 214.266 8.44166C214.116 8.75827 213.91 9.04532 213.658 9.28916C213.123 9.78857 212.423 10.0732 211.691 10.0887C211.302 10.0887 210.916 10.0127 210.556 9.86482C210.217 9.7365 209.906 9.54066 209.645 9.28916C209.378 9.05455 209.166 8.76554 209.021 8.44166C208.861 8.10173 208.779 7.73014 208.781 7.3543ZM208.781 16.7248C208.789 16.3586 208.869 15.9977 209.017 15.6628C209.165 15.3279 209.379 15.0258 209.645 14.7739C209.906 14.5174 210.216 14.3161 210.556 14.1823C210.917 14.0399 211.303 13.9693 211.691 13.9744C212.059 13.9723 212.423 14.0429 212.763 14.1823C213.097 14.3202 213.401 14.5211 213.658 14.7739C213.914 15.0266 214.12 15.3249 214.266 15.6534C214.413 15.9942 214.489 16.3615 214.489 16.7328C214.489 17.1041 214.413 17.4714 214.266 17.8122C214.12 18.1359 213.914 18.429 213.658 18.6756C213.396 18.9182 213.093 19.113 212.763 19.2513C212.423 19.3906 212.059 19.4613 211.691 19.4592C211.303 19.4643 210.917 19.3937 210.556 19.2513C210.22 19.1169 209.911 18.9217 209.645 18.6756C209.375 18.4382 209.162 18.1431 209.021 17.8122C208.859 17.4728 208.777 17.1008 208.781 16.7248Z" fill="#E6E7E8"/>
<path d="M302.15 276.412C302.782 276.445 303.407 276.265 303.925 275.9C304.373 275.565 304.581 274.861 304.581 273.774V268.817C304.58 267.996 304.687 267.179 304.901 266.386C305.1 265.648 305.436 264.953 305.892 264.339C306.357 263.749 306.947 263.269 307.619 262.932C308.419 262.559 309.295 262.378 310.178 262.404H313.775V267.553H312.512C312.224 267.525 311.933 267.575 311.671 267.699C311.409 267.823 311.186 268.016 311.025 268.257C310.749 268.744 310.61 269.297 310.625 269.856V274.909C310.643 275.549 310.529 276.186 310.289 276.78C310.097 277.239 309.827 277.661 309.49 278.027C309.196 278.343 308.843 278.598 308.451 278.779C308.137 278.944 307.795 279.047 307.443 279.083C307.791 279.147 308.129 279.254 308.451 279.402C308.841 279.571 309.195 279.815 309.49 280.122C310.26 280.974 310.667 282.093 310.625 283.24V288.309C310.605 288.869 310.744 289.424 311.025 289.908C311.184 290.152 311.406 290.348 311.669 290.475C311.931 290.602 312.222 290.655 312.512 290.628H313.775V295.777H310.178C309.295 295.803 308.419 295.622 307.619 295.249C306.947 294.913 306.357 294.432 305.892 293.842C305.439 293.226 305.103 292.532 304.901 291.795C304.688 290.997 304.581 290.175 304.581 289.349V284.391C304.636 284.013 304.606 283.627 304.493 283.262C304.379 282.896 304.185 282.561 303.925 282.281C303.407 281.916 302.782 281.736 302.15 281.769V276.412Z" fill="#4977FF"/>
<path d="M357.382 281.737C356.745 281.704 356.115 281.884 355.591 282.249C355.334 282.531 355.142 282.866 355.028 283.231C354.915 283.596 354.883 283.981 354.935 284.36V289.317C354.936 290.143 354.828 290.965 354.615 291.763C354.42 292.503 354.083 293.198 353.624 293.81C353.167 294.408 352.575 294.89 351.897 295.217C351.097 295.59 350.221 295.771 349.339 295.745H345.741V290.548H347.02C347.307 290.572 347.596 290.517 347.855 290.391C348.114 290.264 348.334 290.07 348.491 289.828C348.772 289.344 348.911 288.789 348.891 288.229V283.16C348.875 282.525 348.989 281.894 349.227 281.305C349.422 280.84 349.698 280.412 350.042 280.042C350.333 279.737 350.68 279.493 351.066 279.322C351.393 279.176 351.737 279.069 352.089 279.003C351.732 278.965 351.385 278.862 351.066 278.699C350.678 278.519 350.33 278.264 350.042 277.947C349.695 277.586 349.418 277.163 349.227 276.7C348.987 276.106 348.873 275.469 348.891 274.829V269.76C348.906 269.201 348.768 268.648 348.491 268.161C348.332 267.923 348.111 267.731 347.852 267.608C347.593 267.484 347.306 267.432 347.02 267.457H345.741V262.404H349.339C350.221 262.378 351.097 262.559 351.897 262.932C352.575 263.259 353.167 263.741 353.624 264.339C354.086 264.949 354.423 265.645 354.615 266.386C354.829 267.179 354.937 267.996 354.935 268.817V273.774C354.882 274.155 354.913 274.543 355.026 274.91C355.14 275.278 355.332 275.616 355.591 275.9C356.115 276.265 356.745 276.445 357.382 276.412V281.737Z" fill="#4977FF"/>
</svg>
