<svg width="30" height="30" viewBox="0 0 30 30" fill="none" xmlns="http://www.w3.org/2000/svg">
<rect width="30" height="30" rx="5" fill="#19264B"/>
<path d="M9.33241 23.9788C8.59905 23.9788 7.98999 23.8515 7.50522 23.5969C7.03289 23.3423 6.65999 22.9605 6.38653 22.4514C6.11308 21.9556 5.92041 21.3527 5.80855 20.6426C5.69668 19.9191 5.64074 19.0884 5.64074 18.1506C5.64074 17.4539 5.55373 16.918 5.37972 16.5428C5.2057 16.1543 4.94467 15.8394 4.59663 15.5982L4.46612 15.5379C4.15537 15.3236 4 15.069 4 14.7743V14.3723C4 14.0776 4.15537 13.823 4.46612 13.6086L4.61528 13.5282C4.96331 13.2737 5.21813 12.9655 5.37972 12.6038C5.55373 12.2286 5.64074 11.6927 5.64074 10.996C5.64074 10.0581 5.69668 9.23414 5.80855 8.52404C5.92041 7.80054 6.11308 7.19093 6.38653 6.6952C6.65999 6.19947 7.03289 5.82432 7.50522 5.56975C7.98999 5.31519 8.59905 5.18791 9.33241 5.18791H9.42564C9.54993 5.18791 9.64937 5.2281 9.72395 5.30849C9.79853 5.38888 9.83582 5.49606 9.83582 5.63005V6.37364C9.83582 6.50762 9.79853 6.61481 9.72395 6.6952C9.64937 6.77558 9.55615 6.81578 9.44428 6.81578H9.35106C8.75442 6.82918 8.30695 6.99665 8.00863 7.31821C7.72274 7.62636 7.53008 8.1087 7.43064 8.7652C7.34363 9.42171 7.30013 10.2926 7.30013 11.3778C7.30013 12.1817 7.18205 12.8449 6.94588 13.3675C6.70971 13.89 6.36167 14.2919 5.90177 14.5733C6.21252 14.7475 6.46733 14.9886 6.66621 15.2968C6.87751 15.5915 7.03289 15.9466 7.13233 16.3619C7.24419 16.7773 7.30013 17.2462 7.30013 17.7687C7.30013 18.8406 7.34363 19.7115 7.43064 20.3814C7.53008 21.0513 7.72274 21.5403 8.00863 21.8485C8.30695 22.1566 8.75442 22.3241 9.35106 22.3509H9.44428C9.55615 22.3509 9.64937 22.3911 9.72395 22.4715C9.79853 22.5519 9.83582 22.659 9.83582 22.793V23.5366C9.83582 23.6706 9.79853 23.7778 9.72395 23.8582C9.64937 23.9386 9.54993 23.9788 9.42564 23.9788H9.33241Z" fill="white"/>
<path d="M9.09818 9.45023C8.77638 9.10463 8.77377 8.53806 9.09238 8.18894C9.40693 7.84426 9.91643 7.8415 10.2341 8.18274L13.4076 11.592C13.7258 11.9338 13.7322 12.4927 13.4219 12.8431C13.109 13.1965 12.5931 13.2036 12.2722 12.8589L9.09818 9.45023ZM14.6611 21.8013C14.2077 21.8193 13.8274 21.4301 13.8134 20.9336L13.6458 14.9859C13.6411 14.8214 13.6694 14.6578 13.7287 14.5065L13.8088 14.3022C13.8622 14.1661 13.9395 14.0429 14.0363 13.9395L19.4558 8.15531C19.7811 7.80808 20.3019 7.81503 20.6194 8.17083C20.9377 8.52746 20.931 9.09921 20.6045 9.44681L15.6302 14.743C15.4239 14.9626 15.3109 15.2667 15.3187 15.5817L15.4494 20.8818C15.4615 21.3732 15.1098 21.7835 14.6611 21.8013Z" fill="white"/>
<path d="M16.7256 21.915C16.5523 21.7734 16.449 21.5515 16.4463 21.3147L16.382 15.7395C16.3796 15.5273 16.4554 15.323 16.5924 15.1729C16.7317 15.0201 16.9223 14.9366 17.1194 14.9419L21.1118 15.0503C21.3465 15.0566 21.5324 15.2692 21.5282 15.5262C21.5238 15.7856 21.3274 15.9915 21.0905 15.985L18.2485 15.9074C17.6954 15.8922 17.2415 16.3834 17.249 16.989L17.2821 19.6943C17.2909 20.4129 17.9034 20.9392 18.543 20.7779L21.86 19.9414C22.0888 19.8837 22.317 20.0398 22.37 20.2903C22.423 20.541 22.2801 20.7913 22.0509 20.8491L17.2974 22.0468C17.0984 22.0969 16.8893 22.0487 16.7256 21.915Z" fill="white"/>
<path d="M21.6676 5C22.401 5 23.0038 5.12983 23.4761 5.38948C23.9609 5.64914 24.34 6.03179 24.6135 6.53743C24.8869 7.04308 25.0796 7.66488 25.1915 8.40285C25.3158 9.14082 25.3779 9.98812 25.3779 10.9447C25.3779 11.6554 25.4587 12.202 25.6203 12.5847C25.7943 12.9673 26.0553 13.2816 26.4034 13.5276L26.5339 13.6096C26.8446 13.8283 27 14.0879 27 14.3886V14.7986C27 15.0992 26.8446 15.352 26.5339 15.557L26.3847 15.6595C26.0367 15.9055 25.7819 16.2198 25.6203 16.6025C25.4587 16.9851 25.3779 17.5318 25.3779 18.2424C25.3779 19.199 25.3158 20.0463 25.1915 20.7843C25.0796 21.5086 24.8869 22.1168 24.6135 22.6087C24.34 23.1144 23.9609 23.497 23.4761 23.7567C23.0038 24.03 22.4072 24.1667 21.6862 24.1667H21.5744C21.4501 24.1667 21.3506 24.1257 21.276 24.0437C21.2015 23.9617 21.1642 23.8523 21.1642 23.7157V22.9572C21.1642 22.8206 21.2015 22.7112 21.276 22.6292C21.3506 22.5472 21.4501 22.5062 21.5744 22.5062H21.6489C22.258 22.4789 22.7055 22.3081 22.9914 21.9938C23.2897 21.6794 23.4823 21.1875 23.5694 20.5178C23.6688 19.8345 23.7185 18.9462 23.7185 17.8529C23.7185 17.0193 23.8304 16.336 24.0541 15.803C24.2903 15.2701 24.6383 14.8669 25.0982 14.5936C24.7999 14.3886 24.5451 14.1358 24.3338 13.8351C24.1349 13.5345 23.9795 13.1791 23.8677 12.7692C23.7682 12.3455 23.7185 11.8672 23.7185 11.3342C23.7185 10.2273 23.6688 9.33898 23.5694 8.66934C23.4823 7.98604 23.2959 7.48722 23.01 7.17291C22.7241 6.84492 22.2767 6.67409 21.6676 6.66043H21.5744C21.4501 6.66043 21.3506 6.61943 21.276 6.53743C21.2015 6.45544 21.1642 6.34611 21.1642 6.20945V5.45098C21.1642 5.31432 21.2015 5.20499 21.276 5.12299C21.3506 5.041 21.4501 5 21.5744 5H21.6676Z" fill="white"/>
</svg>
