<svg width="59" height="50" viewBox="0 0 59 50" fill="none" xmlns="http://www.w3.org/2000/svg">
<path d="M13.5846 49.5098C11.7163 49.5098 10.1647 49.1778 8.92974 48.5137C7.72644 47.8496 6.77647 46.8535 6.07982 45.5253C5.38318 44.2321 4.89236 42.6593 4.60737 40.8069C4.32238 38.9195 4.17988 36.7525 4.17988 34.3059C4.17988 32.4884 3.95822 31.0903 3.5149 30.1117C3.07158 29.0981 2.4066 28.2767 1.51996 27.6476L1.18747 27.4903C0.395822 26.9311 0 26.267 0 25.4981V24.4495C0 23.6806 0.395822 23.0165 1.18747 22.4573L1.56745 22.2476C2.4541 21.5835 3.10324 20.7796 3.5149 19.8359C3.95822 18.8573 4.17988 17.4592 4.17988 15.6417C4.17988 13.1951 4.32238 11.0456 4.60737 9.19314C4.89236 7.30576 5.38318 5.71546 6.07982 4.42225C6.77647 3.12904 7.72644 2.1504 8.92974 1.48632C10.1647 0.822236 11.7163 0.490196 13.5846 0.490196H13.8221C14.1388 0.490196 14.3921 0.595051 14.5821 0.804759C14.7721 1.01447 14.8671 1.29408 14.8671 1.6436V3.58341C14.8671 3.93293 14.7721 4.21254 14.5821 4.42225C14.3921 4.63196 14.1546 4.73681 13.8696 4.73681H13.6321C12.1122 4.77177 10.9722 5.20866 10.2122 6.0475C9.48389 6.85139 8.99307 8.10964 8.73975 9.82227C8.51809 11.5349 8.40726 13.8068 8.40726 16.6378C8.40726 18.7349 8.10643 20.465 7.50478 21.8281C6.90314 23.1913 6.01649 24.2398 4.84486 24.9738C5.6365 25.4282 6.28565 26.0573 6.7923 26.8612C7.33062 27.6301 7.72644 28.5563 7.97977 29.6398C8.26476 30.7233 8.40726 31.9466 8.40726 33.3097C8.40726 36.1059 8.51809 38.3777 8.73975 40.1253C8.99307 41.8729 9.48389 43.1486 10.2122 43.9525C10.9722 44.7564 12.1122 45.1933 13.6321 45.2632H13.8696C14.1546 45.2632 14.3921 45.368 14.5821 45.5777C14.7721 45.7875 14.8671 46.0671 14.8671 46.4166V48.3564C14.8671 48.7059 14.7721 48.9855 14.5821 49.1952C14.3921 49.4049 14.1388 49.5098 13.8221 49.5098H13.5846Z" fill="#231F20"/>
<path d="M12.9879 11.6093C12.1681 10.7077 12.1614 9.22972 12.9731 8.31896C13.7744 7.41982 15.0724 7.41261 15.8817 8.30281L23.9664 17.1965C24.7769 18.0881 24.7932 19.5461 24.0028 20.4602C23.2057 21.3821 21.8915 21.4007 21.0739 20.5015L12.9879 11.6093ZM27.1597 43.8295C26.0046 43.8766 25.0358 42.8611 25.0002 41.566L24.5731 26.0502C24.5613 25.6211 24.6334 25.1943 24.7844 24.7997L24.9885 24.2666C25.1244 23.9116 25.3213 23.5901 25.568 23.3205L39.3745 8.23123C40.2033 7.32542 41.53 7.34355 42.3388 8.27173C43.1496 9.20208 43.1326 10.6936 42.3008 11.6004L29.6284 25.4164C29.1029 25.9894 28.8152 26.7828 28.835 27.6043L29.168 41.4308C29.1989 42.7126 28.3027 43.783 27.1597 43.8295Z" fill="#231F20"/>
<path d="M32.4192 44.1261C31.9776 43.7566 31.7146 43.1778 31.7077 42.5601L31.5439 28.016C31.5376 27.4625 31.7308 26.9296 32.0797 26.5379C32.4347 26.1393 32.9201 25.9215 33.4225 25.9355L43.5932 26.2181C44.191 26.2347 44.6649 26.7892 44.654 27.4596C44.643 28.1362 44.1426 28.6735 43.5391 28.6566L36.2988 28.454C34.8897 28.4145 33.7336 29.6957 33.7525 31.2758L33.8369 38.3331C33.8593 40.2077 35.4195 41.5806 37.0492 41.1598L45.4994 38.9776C46.0822 38.8271 46.6636 39.2344 46.7984 39.8876C46.9335 40.5418 46.5694 41.1948 45.9857 41.3454L33.8758 44.4699C33.3688 44.6007 32.8361 44.475 32.4192 44.1261Z" fill="#231F20"/>
<path d="M45.0091 0C46.8774 0 48.4132 0.338681 49.6165 1.01604C50.8515 1.6934 51.8173 2.69162 52.5139 4.01069C53.2106 5.32977 53.7014 6.95187 53.9864 8.87701C54.303 10.8021 54.4614 13.0125 54.4614 15.508C54.4614 17.3619 54.6672 18.7879 55.0789 19.7861C55.5222 20.7843 56.1872 21.6043 57.0738 22.246L57.4063 22.4599C58.1979 23.0303 58.5938 23.7077 58.5938 24.492V25.5615C58.5938 26.3458 58.1979 27.0053 57.4063 27.5401L57.0263 27.8075C56.1397 28.4492 55.4905 29.2692 55.0789 30.2674C54.6672 31.2656 54.4614 32.6916 54.4614 34.5455C54.4614 37.041 54.303 39.2513 53.9864 41.1765C53.7014 43.066 53.2106 44.6524 52.5139 45.9358C51.8173 47.2549 50.8515 48.2531 49.6165 48.9305C48.4132 49.6435 46.8933 50 45.0566 50H44.7717C44.455 50 44.2017 49.893 44.0117 49.6791C43.8217 49.4652 43.7267 49.18 43.7267 48.8235V46.8449C43.7267 46.4884 43.8217 46.2032 44.0117 45.9893C44.2017 45.7754 44.455 45.6684 44.7717 45.6684H44.9616C46.5133 45.5971 47.6532 45.1515 48.3815 44.3316C49.1415 43.5116 49.6323 42.2282 49.854 40.4813C50.1073 38.6988 50.234 36.3815 50.234 33.5294C50.234 31.3547 50.519 29.5722 51.089 28.1818C51.6906 26.7914 52.5773 25.7397 53.7489 25.0267C52.9889 24.492 52.3398 23.8324 51.8014 23.0481C51.2948 22.2638 50.899 21.3369 50.614 20.2674C50.3607 19.1622 50.234 17.9144 50.234 16.5241C50.234 13.6364 50.1073 11.3191 49.854 9.57219C49.6323 7.78966 49.1574 6.48841 48.429 5.66845C47.7007 4.81283 46.5608 4.3672 45.0091 4.33155H44.7717C44.455 4.33155 44.2017 4.2246 44.0117 4.01069C43.8217 3.79679 43.7267 3.51159 43.7267 3.15508V1.17647C43.7267 0.819963 43.8217 0.534758 44.0117 0.320855C44.2017 0.106952 44.455 0 44.7717 0H45.0091Z" fill="#231F20"/>
</svg>
