<svg width="59" height="50" viewBox="0 0 59 50" fill="none" xmlns="http://www.w3.org/2000/svg">
<path d="M13.5985 49.5098C11.7283 49.5098 10.1751 49.1778 8.9389 48.5137C7.73437 47.8496 6.78342 46.8535 6.08606 45.5253C5.3887 44.2321 4.89738 42.6593 4.61209 40.8069C4.32681 38.9195 4.18417 36.7525 4.18417 34.3059C4.18417 32.4884 3.96228 31.0903 3.5185 30.1117C3.07473 29.0981 2.40907 28.2767 1.52152 27.6476L1.18868 27.4903C0.396228 26.9311 0 26.267 0 25.4981V24.4495C0 23.6806 0.396228 23.0165 1.18868 22.4573L1.56906 22.2476C2.45661 21.5835 3.10643 20.7796 3.5185 19.8359C3.96228 18.8573 4.18417 17.4592 4.18417 15.6417C4.18417 13.1951 4.32681 11.0456 4.61209 9.19314C4.89738 7.30576 5.3887 5.71546 6.08606 4.42225C6.78342 3.12904 7.73437 2.1504 8.9389 1.48632C10.1751 0.822236 11.7283 0.490196 13.5985 0.490196H13.8363C14.1533 0.490196 14.4068 0.595051 14.597 0.804759C14.7872 1.01447 14.8823 1.29408 14.8823 1.6436V3.58341C14.8823 3.93293 14.7872 4.21254 14.597 4.42225C14.4068 4.63196 14.1691 4.73681 13.8838 4.73681H13.6461C12.1246 4.77177 10.9834 5.20866 10.2227 6.0475C9.49362 6.85139 9.0023 8.10964 8.74871 9.82227C8.52682 11.5349 8.41588 13.8068 8.41588 16.6378C8.41588 18.7349 8.11475 20.465 7.51248 21.8281C6.91021 23.1913 6.02266 24.2398 4.84983 24.9738C5.64229 25.4282 6.2921 26.0573 6.79927 26.8612C7.33814 27.6301 7.73437 28.5563 7.98795 29.6398C8.27324 30.7233 8.41588 31.9466 8.41588 33.3097C8.41588 36.1059 8.52682 38.3777 8.74871 40.1253C9.0023 41.8729 9.49362 43.1486 10.2227 43.9525C10.9834 44.7564 12.1246 45.1933 13.6461 45.2632H13.8838C14.1691 45.2632 14.4068 45.368 14.597 45.5777C14.7872 45.7875 14.8823 46.0671 14.8823 46.4166V48.3564C14.8823 48.7059 14.7872 48.9855 14.597 49.1952C14.4068 49.4049 14.1533 49.5098 13.8363 49.5098H13.5985Z" fill="white"/>
<path d="M13.0012 11.6093C12.1806 10.7077 12.1739 9.22972 12.9864 8.31896C13.7886 7.41982 15.0879 7.41261 15.898 8.30281L23.991 17.1965C24.8023 18.0881 24.8186 19.5461 24.0275 20.4602C23.2295 21.3821 21.9139 21.4007 21.0955 20.5015L13.0012 11.6093ZM27.1875 43.8295C26.0312 43.8766 25.0615 42.8611 25.0258 41.566L24.5983 26.0502C24.5865 25.6211 24.6587 25.1943 24.8099 24.7997L25.0141 24.2666C25.1501 23.9116 25.3473 23.5901 25.5943 23.3205L39.4149 8.23123C40.2445 7.32542 41.5726 7.34355 42.3823 8.27173C43.1938 9.20208 43.1768 10.6936 42.3442 11.6004L29.6588 25.4164C29.1327 25.9894 28.8447 26.7828 28.8645 27.6043L29.1979 41.4308C29.2288 42.7126 28.3318 43.783 27.1875 43.8295Z" fill="white"/>
<path d="M32.4524 44.1261C32.0104 43.7566 31.7471 43.1778 31.7402 42.5601L31.5762 28.016C31.57 27.4625 31.7634 26.9296 32.1126 26.5379C32.468 26.1393 32.9539 25.9215 33.4567 25.9355L43.6379 26.2181C44.2364 26.2347 44.7107 26.7892 44.6998 27.4596C44.6887 28.1362 44.1879 28.6735 43.5837 28.6566L36.336 28.454C34.9255 28.4145 33.7682 29.6957 33.7871 31.2758L33.8716 38.3331C33.8941 40.2077 35.4559 41.5806 37.0872 41.1598L45.5461 38.9776C46.1295 38.8271 46.7115 39.2344 46.8464 39.8876C46.9816 40.5418 46.6172 41.1948 46.0329 41.3454L33.9106 44.4699C33.403 44.6007 32.8698 44.475 32.4524 44.1261Z" fill="white"/>
<path d="M45.0553 0C46.9255 0 48.4629 0.338681 49.6674 1.01604C50.9036 1.6934 51.8704 2.69162 52.5678 4.01069C53.2651 5.32977 53.7565 6.95187 54.0418 8.87701C54.3587 10.8021 54.5172 13.0125 54.5172 15.508C54.5172 17.3619 54.7233 18.7879 55.1353 19.7861C55.5791 20.7843 56.2448 21.6043 57.1323 22.246L57.4652 22.4599C58.2576 23.0303 58.6538 23.7077 58.6538 24.492V25.5615C58.6538 26.3458 58.2576 27.0053 57.4652 27.5401L57.0848 27.8075C56.1972 28.4492 55.5474 29.2692 55.1353 30.2674C54.7233 31.2656 54.5172 32.6916 54.5172 34.5455C54.5172 37.041 54.3587 39.2513 54.0418 41.1765C53.7565 43.066 53.2651 44.6524 52.5678 45.9358C51.8704 47.2549 50.9036 48.2531 49.6674 48.9305C48.4629 49.6435 46.9413 50 45.1029 50H44.8176C44.5006 50 44.247 49.893 44.0568 49.6791C43.8666 49.4652 43.7715 49.18 43.7715 48.8235V46.8449C43.7715 46.4884 43.8666 46.2032 44.0568 45.9893C44.247 45.7754 44.5006 45.6684 44.8176 45.6684H45.0078C46.561 45.5971 47.7021 45.1515 48.4312 44.3316C49.1919 43.5116 49.6832 42.2282 49.9051 40.4813C50.1587 38.6988 50.2855 36.3815 50.2855 33.5294C50.2855 31.3547 50.5708 29.5722 51.1414 28.1818C51.7436 26.7914 52.6312 25.7397 53.804 25.0267C53.0433 24.492 52.3934 23.8324 51.8546 23.0481C51.3474 22.2638 50.9512 21.3369 50.6659 20.2674C50.4123 19.1622 50.2855 17.9144 50.2855 16.5241C50.2855 13.6364 50.1587 11.3191 49.9051 9.57219C49.6832 7.78966 49.2078 6.48841 48.4787 5.66845C47.7497 4.81283 46.6085 4.3672 45.0553 4.33155H44.8176C44.5006 4.33155 44.247 4.2246 44.0568 4.01069C43.8666 3.79679 43.7715 3.51159 43.7715 3.15508V1.17647C43.7715 0.819963 43.8666 0.534758 44.0568 0.320855C44.247 0.106952 44.5006 0 44.8176 0H45.0553Z" fill="white"/>
</svg>
